Coordinates
version=1
nRows=20
nColumns=34
inDegrees=yes

Units are S.I. units (second, meters, Newtons, ...)
If the header above contains a line with 'inDegrees', this indicates whether rotational values are in degrees (yes) or radians (no).

endheader
time	pelvis_tilt	pelvis_list	pelvis_rotation	pelvis_tx	pelvis_ty	pelvis_tz	hip_flexion_r	hip_adduction_r	hip_rotation_r	knee_angle_r	ankle_angle_r	subtalar_angle_r	mtp_angle_r	hip_flexion_l	hip_adduction_l	hip_rotation_l	knee_angle_l	ankle_angle_l	subtalar_angle_l	mtp_angle_l	lumbar_extension	lumbar_bending	lumbar_rotation	arm_flex_r	arm_add_r	arm_rot_r	elbow_flex_r	pro_sup_r	arm_flex_l	arm_add_l	arm_rot_l	elbow_flex_l	pro_sup_l
      3.65000000	      1.13863238	      1.31882599	     28.13435406	      0.33527261	      0.99158405	     -0.13172505	      1.91006149	      0.20009551	     -6.47716310	     13.96847084	     -2.23756429	    -19.95430266	      0.00000000	      0.83808193	      3.95063075	     -4.33716200	     12.89243494	     -2.78715745	    -17.71693301	      0.00000000	    -13.88086271	     -0.45654077	      1.36962934	      6.57645630	     -4.02224325	     -9.51088616	     23.66935498	     90.10684429	      9.99622768	     -7.09595001	     10.18733296	     22.01134215	     83.98143725
      3.66666670	      0.60817010	      1.38989416	     28.42657727	      0.33664555	      0.98603925	     -0.13180468	      0.96978359	     -0.01269588	     -7.10052190	     11.89375559	     -0.89118533	    -17.79088235	      0.00000000	     -0.08145969	      4.28161521	     -5.00006444	     10.00600598	     -2.86995010	    -15.17778469	      0.00000000	    -12.96918681	     -0.84937742	      1.17898774	      6.11662127	     -3.80399242	     -9.67912246	     23.61580322	     89.71311951	     10.45590756	     -7.43716894	     11.43224748	     22.87143741	     84.35606606
      3.68333330	      0.22494135	      1.49665173	     28.77559388	      0.33728428	      0.98879149	     -0.13289945	     -0.07657174	     -0.21858398	     -7.93741377	     10.15130681	     -0.05184533	    -15.94243908	      0.00000000	     -1.04055086	      4.57758262	     -5.48992189	      7.63552855	     -3.03144007	    -12.69741731	      0.00000000	    -12.19433957	     -1.17542707	      0.86850307	      5.72894973	     -3.57636722	     -9.89784476	     23.54334984	     89.33041366	     10.83338219	     -7.70193343	     12.62062319	     23.52091180	     84.65554368
      3.70000000	     -0.23891320	      1.32160428	     28.96668529	      0.33637319	      0.98449367	     -0.13143887	     -0.42596578	     -0.14789601	     -8.09886221	      8.59478592	      0.07082604	    -15.63480834	      0.00000000	     -1.53043660	      4.70824356	     -5.45177390	      5.65426251	     -3.18662174	    -11.98937595	      0.00000000	    -11.20146290	     -1.32075805	      0.70976359	      5.26872352	     -3.45085248	     -9.89858220	     23.44074035	     89.28497367	     11.18741440	     -7.74796877	     12.76277832	     23.88738335	     84.68682957
      3.71666670	     -0.11633298	      1.40940401	     28.95925488	      0.33435539	      0.98659524	     -0.13007113	     -0.91893613	     -0.15908633	     -8.89482954	      7.50594646	      0.62382742	    -13.65223171	      0.00000000	     -2.42979683	      4.69201297	     -6.40016243	      4.13573071	     -2.66069579	     -9.23952813	      0.00000000	    -11.28539329	     -1.45855105	      0.68380587	      5.26242251	     -3.34602782	     -9.99064913	     23.60482875	     88.94905096	     11.69286062	     -8.10001241	     13.96195309	     25.41312282	     84.94125712
      3.73333330	     -0.51814495	      1.39581249	     29.01745979	      0.33165828	      0.97907806	     -0.12933262	     -0.97648535	     -0.27727774	     -8.77723376	      6.46171913	      0.98571655	    -13.52942564	      0.00000000	     -2.45841148	      4.92609708	     -6.26428334	      3.17460641	     -2.56029116	     -8.99034523	      0.00000000	    -10.74035101	     -1.78618286	      0.53524030	      5.35615161	     -3.24484160	     -9.96543811	     23.68073658	     88.92021684	     12.30794090	     -8.14987622	     14.02835824	     25.76918274	     84.95198928
      3.75000000	     -0.91308703	      1.43121500	     28.95720649	      0.32866514	      0.98668157	     -0.12677100	     -1.08063155	     -0.44964606	     -8.75580961	      5.48545246	      1.03982278	    -12.84767283	      0.00000000	     -2.56769460	      5.19072447	     -6.46177795	      1.98595418	     -3.19790849	     -8.26477604	      0.00000000	    -10.14126304	     -2.04966614	      0.54918816	      5.37340416	     -3.06297284	     -9.90204178	     23.71323509	     88.87477817	     12.91926471	     -8.24730753	     14.20714531	     26.33734538	     84.98467478
      3.76666670	     -1.08803194	      1.48100971	     28.71425060	      0.32928607	      0.97842819	     -0.12645740	     -1.25382691	     -0.57916566	     -9.23909539	      5.17832925	      3.12883225	    -10.30838148	      0.00000000	     -2.73659059	      5.26693252	     -7.16841041	      1.44242337	     -2.42204224	     -6.30738442	      0.00000000	    -10.05555249	     -2.37301311	      1.03990433	      5.47171161	     -3.13476869	     -9.62989857	     23.87112171	     88.61364376	     13.43647363	     -8.59289213	     15.46566596	     28.38690360	     85.18800097
      3.78333330	     -1.32132857	      1.46434507	     28.76278663	      0.32805230	      0.99231712	     -0.12595479	     -1.58508477	     -0.64456665	     -9.50620912	      4.11925343	      2.64435172	     -9.67969988	      0.00000000	     -2.86137119	      5.37691956	     -7.16872669	      0.49618066	     -2.82807283	     -5.55261519	      0.00000000	     -9.64289400	     -2.47635061	      0.82174827	      5.68274883	     -2.97728855	     -9.52335567	     23.97851932	     88.52538015	     13.97729491	     -8.57742201	     15.78416865	     28.71331577	     85.21800911
      3.80000000	     -1.33663764	      1.50424819	     28.60766873	      0.33232195	      0.99992721	     -0.12784802	     -2.09842588	     -0.62814689	     -9.95065431	      3.26296236	      3.15110006	     -7.70148972	      0.00000000	     -3.30005426	      5.37173463	     -8.09373194	      0.00000000	     -2.12719125	     -2.93004641	      0.00000000	     -9.58070964	     -2.58534014	      0.88331791	      5.89125842	     -2.88300362	     -9.14227059	     23.89048531	     88.29977673	     14.40385776	     -8.82347805	     16.86738940	     29.49068638	     85.30819922
      3.81666670	     -1.43051453	      1.34550259	     28.58610951	      0.33376645	      0.98975086	     -0.12782431	     -2.29186558	     -0.46642027	     -9.73730542	      2.75695192	      3.32049250	     -7.52632634	      0.00000000	     -3.31408127	      5.19902479	     -8.00422259	      0.00000000	     -1.70818406	     -2.74047333	      0.00000000	     -9.32871066	     -2.53618619	      0.81052519	      5.94305834	     -2.68843702	     -9.07209440	     23.89991357	     88.28654737	     14.82010767	     -8.72934706	     16.92456683	     29.72323911	     85.30398909
      3.83333330	     -1.31224267	      1.13322675	     28.52825037	      0.33628675	      0.98642876	     -0.12788655	     -2.60031249	     -0.16154433	     -9.70966054	      2.37949813	      3.32206964	     -7.29508660	      0.00000000	     -3.49372672	      4.86183143	     -8.07793273	      0.00000000	     -1.00214787	     -2.24790923	      0.00000000	     -9.10864853	     -2.26050943	      0.88025972	      5.87003983	     -2.58952459	     -8.98986354	     23.81942060	     88.26851524	     14.99427572	     -8.55066091	     17.04292054	     30.02496998	     85.29891251
      3.85000000	     -1.02450244	      1.27487420	     28.32492908	      0.33500409	      0.99095915	     -0.12707736	     -3.11278743	     -0.14516846	    -10.03958063	      2.32902348	      3.40320172	     -6.43336064	      0.00000000	     -4.03001190	      4.76440228	     -9.36173982	      0.00000000	      0.29777106	      1.03644244	      0.00000000	     -9.32603387	     -2.27153498	      1.20711765	      5.88697808	     -2.63016450	     -8.63877848	     23.73275962	     88.16727237	     15.09160451	     -8.55604422	     17.50937512	     30.97894660	     85.23134299
      3.86666670	     -0.98708778	      1.20981685	     28.21531629	      0.33866624	      0.99063234	     -0.12872999	     -3.16949472	     -0.06871321	    -10.05014546	      2.36296532	      3.34714916	     -6.41862208	      0.00000000	     -4.20366754	      4.66173198	     -9.35773824	      0.00000000	      0.36750917	      1.06679883	      0.00000000	     -9.14009317	     -2.25185498	      1.15052697	      5.91228904	     -2.57631603	     -8.62362372	     23.75272922	     88.16583805	     15.16596794	     -8.45427247	     17.52586597	     31.04138760	     85.22964487
      3.88333330	     -0.68938624	      1.10805380	     28.06946634	      0.33630445	      0.98395302	     -0.12809894	     -3.44747953	      0.15917419	     -9.94589506	      2.19048307	      2.85217711	     -6.44413243	      0.00000000	     -4.58667300	      4.42777277	    -10.43446453	      0.00000000	      1.37681993	      2.52100367	      0.00000000	     -9.21471558	     -1.91423533	      1.42182856	      5.89954578	     -2.60272930	     -8.26244974	     23.89877112	     88.09379080	     14.93599956	     -8.25185726	     17.55683215	     31.78774442	     85.05354796
      3.90000000	     -0.58759268	      1.05314625	     27.93065740	      0.33487916	      0.98912762	     -0.12639324	     -3.23772148	      0.22042656	     -9.95600533	      2.30227648	      2.51258774	     -6.35751531	      0.00000000	     -4.69289463	      4.31749540	    -10.67157717	      0.00000000	      1.31145257	      2.54907841	      0.00000000	     -9.24325132	     -1.72407320	      1.41501320	      6.12309058	     -2.50579292	     -8.20195278	     24.00377352	     88.08424717	     14.91817604	     -8.03207484	     17.58076510	     31.87330630	     85.03253697
      3.91666670	     -0.48990436	      1.07612653	     27.84213978	      0.33528405	      0.98815986	     -0.12665385	     -3.20938739	      0.23645814	    -10.02840165	      2.31126054	      2.39812844	     -6.36283450	      0.00000000	     -4.74597394	      4.32641612	    -10.79253047	      0.00000000	      1.35434739	      2.52617450	      0.00000000	     -9.13462791	     -1.64499926	      1.45632745	      6.30372081	     -2.43235474	     -8.17169434	     24.08561842	     88.08416714	     14.94576921	     -7.88820879	     17.59602941	     31.94230017	     85.02772392
      3.93333330	     -0.33654105	      1.04822520	     27.58537348	      0.33840621	      0.98766535	     -0.12697251	     -3.20185635	      0.33469455	    -10.25543197	      2.31925612	      1.51442359	     -6.22949920	      0.00000000	     -4.83332193	      4.24983427	    -11.43967793	      0.00000000	      1.31703209	      2.60689373	      0.00000000	     -9.21831503	     -1.43615993	      1.64089553	      6.39138949	     -2.44178138	     -8.06455069	     24.16134028	     88.08265090	     14.72325156	     -7.66766263	     17.59197738	     32.09929005	     84.99209893
      3.95000000	     -0.20210087	      1.06051767	     27.45737370	      0.33813950	      0.99230813	     -0.12521541	     -3.38242032	      0.48111882	    -10.18537027	      2.24358899	      1.00576158	     -6.15678732	      0.00000000	     -5.01626681	      4.11959230	    -11.92911882	      0.00000000	      0.98428812	      3.32494085	      0.00000000	     -9.12774314	     -1.41276382	      1.90232062	      6.37840950	     -2.38524067	     -7.81942543	     24.21314771	     88.09113188	     14.54032387	     -7.47525936	     17.49860325	     32.38180755	     84.91253506
      3.96666670	     -0.12257661	      1.10748449	     27.38270737	      0.33757259	      0.99276673	     -0.12393476	     -3.38827928	      0.51690164	    -10.13157762	      2.30919617	      0.99082179	     -6.14230098	      0.00000000	     -5.20386215	      4.05312707	    -11.84738100	      0.00000000	      1.00221749	      3.43574749	      0.00000000	     -9.02094955	     -1.42221618	      2.03917948	      6.41227161	     -2.18503278	     -7.75944464	     24.24311365	     88.09699622	     14.30945380	     -7.35240730	     17.52604436	     32.36956247	     84.90792198
